<svg version="1.1" xmlns="http://www.w3.org/2000/svg" viewBox="0 0 544.0660721915107 668.5" width="544.0660721915107" height="668.5">
  <!-- svg-source:excalidraw -->
  
  <defs>
    <style class="style-fonts">
      @font-face {
        font-family: "Virgil";
        src: url("https://excalidraw.com/Virgil.woff2");
      }
      @font-face {
        font-family: "Cascadia";
        src: url("https://excalidraw.com/Cascadia.woff2");
      }
      @font-face {
        font-family: "Assistant";
        src: url("https://excalidraw.com/Assistant-Regular.woff2");
      }
    </style>
    
  </defs>
  <rect x="0" y="0" width="544.0660721915107" height="668.5" fill="#ffffff"></rect><g stroke-linecap="round" transform="translate(198.57500076293945 174) rotate(0 15.5 15.5)"><path d="M13.93 0.54 C17.08 0.07, 21.54 0.7, 24.29 2.46 C27.04 4.21, 29.52 7.83, 30.45 11.05 C31.38 14.27, 31.37 18.65, 29.88 21.78 C28.39 24.91, 24.52 28.39, 21.53 29.83 C18.53 31.27, 14.96 31.41, 11.89 30.41 C8.83 29.42, 5.12 26.63, 3.16 23.87 C1.19 21.12, -0.2 17.09, 0.11 13.88 C0.43 10.66, 2.51 6.84, 5.04 4.57 C7.57 2.3, 13.46 0.93, 15.3 0.26 C17.14 -0.42, 16.19 0.35, 16.08 0.54 M16.98 -0.46 C20.11 -0.1, 25.02 2.79, 27.35 5.45 C29.67 8.12, 30.92 12.38, 30.92 15.52 C30.93 18.66, 29.4 21.65, 27.4 24.28 C25.4 26.91, 22.05 30.55, 18.93 31.29 C15.8 32.02, 11.53 30.3, 8.67 28.71 C5.82 27.11, 3.09 24.74, 1.8 21.72 C0.5 18.71, -0.03 13.87, 0.9 10.61 C1.84 7.34, 4.61 3.88, 7.43 2.15 C10.25 0.42, 16.23 0.51, 17.82 0.24 C19.41 -0.03, 16.98 0.26, 16.97 0.53" stroke="none" stroke-width="0" fill="#ffc9c9"></path><path d="M16.07 -0.31 C19.28 -0.43, 23.17 1.86, 25.55 4.07 C27.93 6.28, 29.72 9.7, 30.34 12.95 C30.96 16.2, 30.95 20.62, 29.27 23.56 C27.6 26.5, 23.46 29.6, 20.3 30.59 C17.14 31.59, 13.35 30.7, 10.33 29.52 C7.32 28.34, 3.82 26.37, 2.2 23.51 C0.57 20.66, -0.06 15.71, 0.59 12.39 C1.23 9.07, 3.38 5.68, 6.07 3.6 C8.77 1.53, 14.95 0.46, 16.78 -0.05 C18.6 -0.55, 17.13 0.27, 17.01 0.57 M13.93 -0.62 C16.93 -1.08, 21.63 1.04, 24.29 3 C26.95 4.96, 29.09 7.8, 29.89 11.14 C30.69 14.48, 30.43 19.96, 29.08 23.04 C27.72 26.12, 24.71 28.51, 21.75 29.62 C18.79 30.73, 14.44 30.68, 11.31 29.69 C8.18 28.7, 4.75 26.27, 2.99 23.7 C1.23 21.13, 0.35 17.47, 0.74 14.27 C1.14 11.08, 3.04 6.79, 5.35 4.53 C7.65 2.26, 13.13 1.27, 14.59 0.69 C16.05 0.1, 14.02 0.91, 14.09 1" stroke="#1e1e1e" stroke-width="2" fill="none"></path></g><g stroke-linecap="round" transform="translate(414.07500076293945 175.92857142857144) rotate(0 15.5 15.5)"><path d="M16.65 0.05 C19.76 0.12, 23.6 2.3, 26.01 4.68 C28.42 7.07, 30.77 11.19, 31.1 14.39 C31.44 17.58, 29.93 21.24, 28.02 23.87 C26.1 26.51, 22.83 29.26, 19.62 30.17 C16.41 31.08, 11.76 30.73, 8.77 29.33 C5.78 27.94, 3.07 24.74, 1.67 21.8 C0.27 18.86, -0.4 14.8, 0.37 11.7 C1.14 8.6, 3.45 5.19, 6.31 3.2 C9.17 1.21, 15.65 0.13, 17.54 -0.24 C19.42 -0.61, 17.64 0.73, 17.62 0.98 M18.52 -0.24 C21.78 0.18, 26.07 2.74, 28.14 5.64 C30.22 8.53, 31.31 13.73, 30.96 17.12 C30.6 20.51, 28.32 23.64, 26.03 25.98 C23.74 28.32, 20.52 30.74, 17.21 31.17 C13.91 31.61, 9.05 30.45, 6.22 28.59 C3.38 26.72, 0.9 23.23, 0.21 19.98 C-0.49 16.73, 0.73 12.15, 2.06 9.09 C3.4 6.03, 5.34 2.95, 8.21 1.62 C11.08 0.29, 17.57 1.29, 19.28 1.12 C21 0.95, 18.66 0.57, 18.5 0.59" stroke="none" stroke-width="0" fill="#ffc9c9"></path><path d="M16.21 0 C19.38 -0.13, 23.38 1.71, 25.83 3.88 C28.27 6.05, 30.43 9.68, 30.87 13.02 C31.32 16.35, 30.28 20.96, 28.51 23.91 C26.74 26.85, 23.29 29.7, 20.23 30.68 C17.18 31.66, 13.29 31.16, 10.16 29.8 C7.03 28.44, 3.18 25.44, 1.46 22.52 C-0.26 19.59, -0.92 15.5, -0.16 12.25 C0.59 9.01, 3.12 5.13, 6.01 3.06 C8.9 0.99, 15.25 0.24, 17.2 -0.17 C19.14 -0.58, 17.67 0.32, 17.69 0.59 M17.66 0 C20.8 0.36, 24.53 3.11, 26.86 5.59 C29.18 8.08, 31.4 11.73, 31.6 14.9 C31.81 18.06, 30.11 21.81, 28.07 24.56 C26.04 27.31, 22.59 30.53, 19.39 31.4 C16.2 32.27, 12.07 31.56, 8.91 29.77 C5.76 27.98, 1.86 23.78, 0.46 20.66 C-0.93 17.54, -0.55 14.15, 0.53 11.06 C1.6 7.97, 4.06 3.96, 6.92 2.12 C9.77 0.27, 15.85 0.22, 17.66 -0.01 C19.46 -0.24, 17.7 0.56, 17.73 0.72" stroke="#1e1e1e" stroke-width="2" fill="none"></path></g><g stroke-linecap="round" transform="translate(414.07500076293945 371.92857142857144) rotate(0 15.5 15.5)"><path d="M14.68 0.48 C17.8 0.08, 21.77 1.14, 24.37 2.98 C26.96 4.81, 29.35 8.18, 30.26 11.49 C31.17 14.79, 31.27 19.81, 29.83 22.81 C28.39 25.81, 24.85 28.23, 21.63 29.49 C18.42 30.75, 13.81 31.29, 10.54 30.38 C7.28 29.47, 3.74 26.74, 2.04 24.01 C0.35 21.28, -0.06 17.27, 0.39 13.99 C0.84 10.71, 2.12 6.76, 4.73 4.36 C7.35 1.96, 14.19 0.21, 16.1 -0.4 C18.01 -1.02, 16.21 0.38, 16.17 0.69 M16.54 0.72 C19.91 1.06, 24.98 3.12, 27.43 5.37 C29.88 7.63, 31.12 11, 31.24 14.26 C31.36 17.53, 30.25 22.27, 28.17 24.98 C26.1 27.69, 21.98 29.72, 18.78 30.51 C15.58 31.3, 11.95 31.29, 8.98 29.71 C6.01 28.14, 2.28 24.24, 0.97 21.05 C-0.34 17.86, 0.16 13.63, 1.13 10.58 C2.09 7.53, 4.01 4.47, 6.77 2.75 C9.53 1.04, 15.83 0.59, 17.67 0.29 C19.5 -0.01, 17.9 0.62, 17.77 0.95" stroke="none" stroke-width="0" fill="#ffc9c9"></path><path d="M17.13 -0.02 C20.34 0.17, 24.39 2.58, 26.74 4.9 C29.09 7.23, 31 10.63, 31.23 13.92 C31.45 17.21, 30.05 21.87, 28.08 24.65 C26.11 27.42, 22.63 29.75, 19.41 30.54 C16.2 31.34, 11.81 30.93, 8.8 29.42 C5.79 27.91, 2.67 24.5, 1.35 21.5 C0.03 18.5, -0.11 14.61, 0.87 11.42 C1.86 8.23, 4.54 4.26, 7.25 2.37 C9.95 0.48, 15.4 0.43, 17.12 0.05 C18.84 -0.32, 17.58 -0.16, 17.56 0.13 M12.05 0.77 C15.18 -0.18, 20.21 -0.32, 23.11 1.29 C26.01 2.9, 28.17 7.33, 29.44 10.41 C30.7 13.48, 31.51 16.82, 30.68 19.75 C29.84 22.67, 27.3 26.21, 24.43 27.95 C21.57 29.69, 17.02 30.51, 13.5 30.19 C9.97 29.87, 5.66 28.38, 3.3 26.02 C0.94 23.66, -0.78 19.49, -0.69 16.03 C-0.59 12.58, 1.77 7.9, 3.89 5.29 C6.01 2.67, 10.59 1.25, 12.04 0.36 C13.49 -0.52, 12.48 -0.21, 12.6 -0.03" stroke="#1e1e1e" stroke-width="2" fill="none"></path></g><g stroke-linecap="round"><g transform="translate(227.48823558662218 203.15961681617551) rotate(0 94.63134756523363 85.05381301075343)"><path d="M-0.83 -0.09 C30.74 28.17, 157.67 142.28, 189.39 170.64 M0.93 -1.18 C32.36 27.24, 157.19 140.04, 188.51 168.8" stroke="#1e1e1e" stroke-width="2" fill="none"></path></g></g><mask></mask><g stroke-linecap="round"><g transform="translate(234.60982500514513 186.21047217039865) rotate(0 87.98306717948606 2.5136217429100327)"><path d="M0.36 1.07 C29.82 1.75, 146.85 3.5, 175.96 4.16 M-0.91 0.58 C28.45 1.39, 145.28 4.27, 175 5.24" stroke="#1e1e1e" stroke-width="2" fill="none"></path></g></g><mask></mask><g stroke-linecap="round"><g transform="translate(429.5591532609285 208.4285640420016) rotate(0 -0.4930501189953702 78.50004800330251)"><path d="M-0.56 -0.94 C-0.46 25.13, 0.23 130.41, 0.08 156.73 M1.35 1.18 C1.43 27.41, 0.34 131.95, -0.3 158.13" stroke="#1e1e1e" stroke-width="2" fill="none"></path></g></g><mask></mask><g stroke-linecap="round"><g transform="translate(405.15647104231056 389.4520407628997) rotate(0 -76.91002923165061 0.7283993895385379)"><path d="M0.64 0.92 C-24.82 1.02, -128.15 0.27, -153.81 0.3 M-0.48 0.35 C-26.01 0.58, -129.2 0.92, -154.75 1.24" stroke="#1e1e1e" stroke-width="2" fill="none"></path></g></g><mask></mask><g stroke-linecap="round" transform="translate(189.57500076293945 10) rotate(0 24 22.5)"><path d="M11.25 0 C21.62 -2.74, 30.32 -2.84, 36.75 0 C44.72 -2.25, 45.09 6.88, 48 11.25 C44.82 14.81, 48.02 22.79, 48 33.75 C50.19 42.04, 44.05 45.52, 36.75 45 C29.51 42, 23.24 47.56, 11.25 45 C2.77 44.86, -2.54 38.57, 0 33.75 C-2.7 27.11, -2.69 21.51, 0 11.25 C-0.04 4.02, 6.67 1.66, 11.25 0" stroke="none" stroke-width="0" fill="#a5d8ff"></path><path d="M11.25 0 C19.81 -1.97, 24.2 0.65, 36.75 0 M11.25 0 C16.29 -0.18, 23.35 -0.42, 36.75 0 M36.75 0 C42.97 -1.41, 48.32 2.23, 48 11.25 M36.75 0 C44.62 -1.54, 48.73 5.83, 48 11.25 M48 11.25 C48.01 21.69, 46.62 29.52, 48 33.75 M48 11.25 C48.49 19.16, 47.72 27.55, 48 33.75 M48 33.75 C46.8 41.35, 44.99 43.66, 36.75 45 M48 33.75 C45.91 42.29, 43.35 46.98, 36.75 45 M36.75 45 C28.66 46.73, 20.5 45.73, 11.25 45 M36.75 45 C29.46 44.19, 22.71 44.08, 11.25 45 M11.25 45 C1.86 46.36, -0.3 41.25, 0 33.75 M11.25 45 C4.72 42.94, 0.49 40.7, 0 33.75 M0 33.75 C0.94 24.38, 1.49 16.71, 0 11.25 M0 33.75 C-0.08 27.21, -0.63 20.86, 0 11.25 M0 11.25 C1.74 4.57, 3.75 0.36, 11.25 0 M0 11.25 C1.22 2.21, 5.05 -1.93, 11.25 0" stroke="#1e1e1e" stroke-width="2" fill="none"></path></g><g stroke-linecap="round"><g transform="translate(213.57500076293945 65) rotate(0 0.5 51)"><path d="M0.22 0.64 C0.17 17.75, 0.23 85.61, 0.19 102.68 M-1.13 -0.07 C-0.84 16.7, 1.9 84.02, 2.48 100.91" stroke="#1e1e1e" stroke-width="2" fill="none"></path></g></g><mask></mask><g stroke-linecap="round" transform="translate(444.71785790579656 112.00000000000006) rotate(0 28.5 29.5)"><path d="M36.25 7.5 C38.81 13.47, 42.13 14.02, 49.75 22.5 C57.25 27.95, 54.95 28.71, 49.75 37.5 C41.1 40.65, 41.39 51.39, 36.25 51.5 C29.67 57.29, 26.94 61.48, 21.75 51.5 C18.47 48.5, 13.32 46.84, 7.25 37.5 C2.99 32.19, 3.04 27.22, 7.25 22.5 C11.18 16.69, 18 11.36, 21.75 7.5 C32.06 -3.01, 28.7 2.25, 36.25 7.5" stroke="none" stroke-width="0" fill="#b2f2bb"></path><path d="M36.25 7.5 C41.51 12.23, 45.51 17.71, 49.75 22.5 M36.25 7.5 C40.77 12.35, 44.4 17.08, 49.75 22.5 M49.75 22.5 C56.62 29.73, 55.82 29.3, 49.75 37.5 M49.75 22.5 C56.37 31.07, 55.76 29.28, 49.75 37.5 M49.75 37.5 C44.86 41.1, 42.5 46.3, 36.25 51.5 M49.75 37.5 C45.58 42.97, 39.22 48.16, 36.25 51.5 M36.25 51.5 C28.43 59.02, 27.63 58.6, 21.75 51.5 M36.25 51.5 C30.14 57.42, 31.07 60.19, 21.75 51.5 M21.75 51.5 C16.26 46.3, 10.6 40.61, 7.25 37.5 M21.75 51.5 C16.13 45.76, 10.18 40.78, 7.25 37.5 M7.25 37.5 C-0.14 28.47, 0.84 31.47, 7.25 22.5 M7.25 37.5 C-0.3 31.45, 0.23 29.48, 7.25 22.5 M7.25 22.5 C11.07 16.99, 18.22 11.47, 21.75 7.5 M7.25 22.5 C13.36 17.72, 16.82 11.13, 21.75 7.5 M21.75 7.5 C29.24 0.2, 29.36 -1.26, 36.25 7.5 M21.75 7.5 C27.89 -0.47, 29.76 0.92, 36.25 7.5" stroke="#1e1e1e" stroke-width="2" fill="none"></path></g><g stroke-linecap="round"><g transform="translate(215.61796472438255 431.93157853434525) rotate(0 -0.09178710551958602 74.52798667508574)"><path d="M-1 1.1 C-1.25 25.6, -1.25 123.32, -0.98 147.88 M0.67 0.64 C0.77 25.15, 1.38 124, 1.31 148.8" stroke="#1e1e1e" stroke-width="2" fill="none"></path></g></g><mask></mask><g stroke-linecap="round" transform="translate(180.704043653449 359.41475717622404) rotate(0 33.72809996663307 33.72809996663307)"><path d="M42.5 8.5 C47.16 13.56, 52.72 16.61, 58.96 25.5 C64.38 34.45, 68.86 33.27, 58.96 42.5 C56.13 50.71, 47.59 58.5, 42.5 58.96 C35.53 67.15, 31.12 69.72, 25.5 58.96 C18.84 50.66, 11.58 47.56, 8.5 42.5 C3.32 35.73, 1.7 31.14, 8.5 25.5 C12.08 17.95, 25.15 11.55, 25.5 8.5 C35.67 -3.3, 35.43 -1.1, 42.5 8.5" stroke="none" stroke-width="0" fill="#ffc9c9"></path><path d="M42.5 8.5 C44.83 11.11, 48.11 17.64, 58.96 25.5 M42.5 8.5 C45.89 12.75, 50.49 17.1, 58.96 25.5 M58.96 25.5 C67.92 32.39, 65.53 32.59, 58.96 42.5 M58.96 25.5 C66.96 36.15, 69.32 35.92, 58.96 42.5 M58.96 42.5 C51.91 46.32, 50.08 52.05, 42.5 58.96 M58.96 42.5 C53.09 47.92, 49 53.92, 42.5 58.96 M42.5 58.96 C32.5 65.54, 32.63 68.34, 25.5 58.96 M42.5 58.96 C33.13 68.89, 34.8 68.06, 25.5 58.96 M25.5 58.96 C17.97 54.32, 14.37 46.82, 8.5 42.5 M25.5 58.96 C21.37 54.5, 15.2 50.4, 8.5 42.5 M8.5 42.5 C-0.82 33.61, 0.27 33.06, 8.5 25.5 M8.5 42.5 C0.09 33.36, -2.21 35.82, 8.5 25.5 M8.5 25.5 C14.04 20.85, 18.24 15.63, 25.5 8.5 M8.5 25.5 C13.84 20.05, 19.32 14.27, 25.5 8.5 M25.5 8.5 C32.83 -1.83, 34.44 0.04, 42.5 8.5 M25.5 8.5 C34.55 0.32, 32.79 0.86, 42.5 8.5" stroke="#1e1e1e" stroke-width="1" fill="none"></path></g><g stroke-linecap="round"><g transform="translate(210.31057780425255 377.6457416795762) rotate(227.27022492945142 3.9760563650212646 14.462432644607077)" fill-rule="evenodd"><path d="M1.43 1.98 C1.42 3.27, 0.56 6.3, -1.66 8.16 C-3.88 10.02, -10.39 11.2, -11.89 13.13 C-13.4 15.07, -12.9 18.81, -10.71 19.78 C-8.51 20.75, -0.81 17.77, 1.29 18.94 C3.38 20.1, 0.49 25.6, 1.86 26.78 C3.23 27.95, 8.13 27.19, 9.52 25.99 C10.92 24.79, 8.98 20.97, 10.21 19.56 C11.44 18.15, 15.45 18.89, 16.91 17.52 C18.36 16.15, 19.97 12.41, 18.93 11.34 C17.9 10.28, 12.88 12.61, 10.69 11.12 C8.51 9.63, 7.78 4.35, 5.83 2.42 C3.88 0.49, -0.09 0.12, -1 -0.48" stroke="none" stroke-width="0" fill="#ffc9c9" fill-rule="evenodd"></path><path d="M-0.59 -0.88 C-0.41 0.87, 2.96 7.48, 1.33 9.75 C-0.29 12.02, -8.38 11.26, -10.33 12.74 C-12.28 14.22, -12.21 17.58, -10.38 18.64 C-8.54 19.69, -1.21 17.51, 0.69 19.07 C2.59 20.62, -0.18 26.58, 1.02 27.96 C2.23 29.34, 6.64 28.66, 7.92 27.35 C9.2 26.04, 6.89 21.48, 8.72 20.1 C10.54 18.72, 17.27 20.71, 18.86 19.08 C20.45 17.45, 19.76 11.88, 18.28 10.33 C16.8 8.78, 11.85 11.2, 9.98 9.8 C8.11 8.41, 8.78 3.53, 7.04 1.95 C5.31 0.36, 0.56 0.72, -0.43 0.3 M1.3 1.27 C1.4 3.22, 3.07 9.31, 0.99 10.89 C-1.08 12.47, -9.25 9.25, -11.15 10.76 C-13.06 12.27, -12.19 18.43, -10.44 19.94 C-8.69 21.46, -2.22 18.17, -0.66 19.86 C0.91 21.55, -2.51 28.51, -1.08 30.07 C0.36 31.63, 6.52 30.84, 7.96 29.22 C9.4 27.6, 5.93 22.18, 7.56 20.35 C9.18 18.51, 15.78 20.03, 17.7 18.22 C19.62 16.42, 20.26 10.88, 19.1 9.54 C17.94 8.2, 12.45 11.46, 10.74 10.2 C9.04 8.93, 10.72 3.72, 8.86 1.96 C7 0.19, 0.89 0.14, -0.43 -0.37" stroke="#1e1e1e" stroke-width="1" fill="none"></path></g></g><mask></mask><g stroke-opacity="0.6" fill-opacity="0.6" transform="translate(72.57500076293945 20) rotate(0 39.625 11.5)"><text x="0" y="0" font-family="Helvetica, Segoe UI Emoji" font-size="20px" fill="#1971c2" text-anchor="start" style="white-space: pre;" direction="ltr" dominant-baseline="text-before-edge">Gateway</text></g><g stroke-opacity="0.6" fill-opacity="0.6" transform="translate(119.95000076293945 179.3571428571429) rotate(0 29.024999618530273 11.5)"><text x="0" y="0" font-family="Helvetica, Segoe UI Emoji" font-size="20px" fill="#e03131" text-anchor="start" style="white-space: pre;" direction="ltr" dominant-baseline="text-before-edge">Nodes</text></g><g stroke-opacity="0.6" fill-opacity="0.6" transform="translate(78.55000114440918 375.5) rotate(0 34.57500076293945 11.5)"><text x="0" y="0" font-family="Helvetica, Segoe UI Emoji" font-size="20px" fill="#e03131" text-anchor="start" style="white-space: pre;" direction="ltr" dominant-baseline="text-before-edge">Firewall</text></g><g stroke-linecap="round" transform="translate(183.07225672063367 589.6401131005515) rotate(0 33.217029756591415 33.21702975659139)"><path d="M45.08 2.48 C50.92 4.06, 56.98 8.66, 60.62 14.03 C64.25 19.41, 67.13 28.17, 66.87 34.74 C66.61 41.31, 63.15 48.22, 59.06 53.45 C54.96 58.69, 48.63 64.44, 42.28 66.13 C35.93 67.82, 27.05 66.07, 20.96 63.6 C14.87 61.12, 9.4 56.54, 5.76 51.29 C2.11 46.04, -1.32 38.56, -0.91 32.1 C-0.49 25.64, 3.92 17.74, 8.25 12.55 C12.57 7.35, 18.73 2.47, 25.06 0.93 C31.39 -0.62, 42.31 2.7, 46.23 3.27 C50.14 3.85, 48.55 3.95, 48.56 4.38 M30.22 1.38 C36.32 0.09, 43.94 0.53, 49.59 3.9 C55.24 7.27, 61.39 15.37, 64.12 21.59 C66.84 27.81, 67.43 35.09, 65.92 41.24 C64.4 47.39, 60.16 54.53, 55.03 58.49 C49.9 62.45, 41.81 64.63, 35.15 64.99 C28.49 65.36, 20.69 64, 15.09 60.66 C9.48 57.33, 3.67 50.76, 1.51 44.98 C-0.66 39.19, 0.15 32.1, 2.1 25.94 C4.04 19.77, 8.27 12.52, 13.19 7.97 C18.12 3.42, 28.49 -0.18, 31.64 -1.37 C34.78 -2.56, 32.31 0.27, 32.08 0.85" stroke="none" stroke-width="0" fill="#ffec99"></path><path d="M25.21 1.94 C31 -0.07, 39.2 0.15, 45.26 2.23 C51.32 4.32, 58.13 9.1, 61.58 14.44 C65.02 19.78, 66.51 27.73, 65.93 34.28 C65.36 40.83, 62.24 48.61, 58.13 53.74 C54.02 58.87, 47.61 63.44, 41.28 65.06 C34.95 66.68, 26.18 65.66, 20.17 63.47 C14.15 61.28, 8.41 57.34, 5.19 51.91 C1.98 46.48, 0.41 37.61, 0.87 30.88 C1.33 24.15, 3.38 16.67, 7.95 11.53 C12.53 6.39, 24.06 1.9, 28.34 0.03 C32.62 -1.85, 33.45 -0.47, 33.66 0.26 M24.86 1.57 C30.9 -0.48, 39.31 0.89, 45.54 3.12 C51.77 5.36, 58.56 9.68, 62.26 14.98 C65.95 20.29, 68.22 28.25, 67.7 34.95 C67.18 41.66, 63.63 50.3, 59.14 55.22 C54.65 60.13, 46.84 63.1, 40.75 64.44 C34.65 65.78, 28.6 65.65, 22.58 63.26 C16.55 60.87, 8.23 55.52, 4.59 50.11 C0.95 44.71, 0.14 37.03, 0.73 30.82 C1.31 24.62, 4.18 17.97, 8.12 12.88 C12.05 7.79, 21.74 2.18, 24.34 0.29 C26.94 -1.6, 23.46 0.77, 23.73 1.56" stroke="#f08c00" stroke-width="1" fill="none"></path></g><g stroke-linecap="round" transform="translate(197.4821003933297 604.8242456131112) rotate(0 18.807186083895488 17.352556065657552)"><path d="M-0.67 -0.15 L37.95 0.44 L37.52 34 L0.72 34.91" stroke="none" stroke-width="0" fill="#ffec99"></path><path d="M0 0 C8.49 0.1, 16.48 0.94, 37.61 0 M0 0 C10.82 -0.3, 22.05 -0.48, 37.61 0 M37.61 0 C36.55 7.96, 37.47 18.07, 37.61 34.71 M37.61 0 C37.21 12.94, 37.41 26.72, 37.61 34.71 M37.61 34.71 C27.33 34.43, 18.73 35.06, 0 34.71 M37.61 34.71 C25.68 34.79, 13.37 34.84, 0 34.71 M0 34.71 C-0.7 24.94, -0.79 13.02, 0 0 M0 34.71 C0.17 27.34, -0.15 19.35, 0 0" stroke="#f08c00" stroke-width="1" fill="none"></path></g><g stroke-linecap="round"><g transform="translate(201.76972353415675 612.9132495894956) rotate(0 15.015840324687844 1.1368683772161603e-13)"><path d="M0 0.24 C5.13 0.2, 25.49 -0.01, 30.5 -0.01 M-0.66 -0.11 C4.46 -0.08, 25.25 0.79, 30.3 0.69" stroke="#f08c00" stroke-width="1" fill="none"></path></g></g><mask></mask><g stroke-linecap="round"><g transform="translate(201.47257811741974 619.644106885162) rotate(0 15.015840324687844 1.1368683772161603e-13)"><path d="M0.47 -0.01 C5.47 -0.01, 25.16 0.27, 30.01 0.23 M0.04 -0.49 C4.97 -0.67, 24.47 -0.74, 29.57 -0.62" stroke="#f08c00" stroke-width="1" fill="none"></path></g></g><mask></mask><g stroke-linecap="round"><g transform="translate(201.3230431434605 626.3749641808294) rotate(0 15.015840324687844 1.1368683772161603e-13)"><path d="M-0.02 0.23 C4.83 0.19, 24.65 -0.14, 29.58 -0.25 M-0.69 -0.13 C4.29 -0.1, 25.36 0.32, 30.58 0.33" stroke="#f08c00" stroke-width="1" fill="none"></path></g></g><mask></mask><g stroke-linecap="round"><g transform="translate(201.26233649240453 633.1058214764962) rotate(0 15.015840324687844 1.1368683772161603e-13)"><path d="M-0.45 -0.25 C4.48 -0.36, 24.54 -0.45, 29.57 -0.44 M0.32 0.82 C5.42 0.74, 25.74 0.12, 30.57 0.03" stroke="#f08c00" stroke-width="1" fill="none"></path></g></g><mask></mask><g stroke-opacity="0.8" fill-opacity="0.8" transform="translate(10 612.5) rotate(0 75.86250305175781 23)"><text x="75.86250305175781" y="0" font-family="Helvetica, Segoe UI Emoji" font-size="20px" fill="#f08c00" text-anchor="middle" style="white-space: pre;" direction="ltr" dominant-baseline="text-before-edge">Database</text><text x="75.86250305175781" y="23" font-family="Helvetica, Segoe UI Emoji" font-size="20px" fill="#f08c00" text-anchor="middle" style="white-space: pre;" direction="ltr" dominant-baseline="text-before-edge">Player wants this</text></g><g stroke-opacity="0.8" fill-opacity="0.8" transform="translate(413.94107219151067 77.57142857142861) rotate(0 60.0625 11.5)"><text x="60.0625" y="0" font-family="Helvetica, Segoe UI Emoji" font-size="20px" fill="#2f9e44" text-anchor="middle" style="white-space: pre;" direction="ltr" dominant-baseline="text-before-edge">Player Avatar</text></g></svg>